# xmcd CD database file
#
# Track frame offsets:
#	150
#	26025
#	57909
#	92127
#	118812
#	145977
#	182379
#
# Disc length: 2697 seconds
#
# Revision: 0
# Processed by: cddbd v1.5.1PL2 Copyright (c) Steve Scherf et al.
# Submitted via: CDex 1.51
#
DISCID=5d0a8707
DTITLE=Eddie "Lockjaw" Davis - Live in Montreux
DYEAR=1977
DGENRE=Jazz
TTITLE0=This Can't Be Love
TTITLE1=I Wished On The Moon
TTITLE2=The Breeze And I
TTITLE3=Angel Eyes
TTITLE4=Telegraph
TTITLE5=Land Of Dreams
TTITLE6=Blue Lou
EXTD=YEAR: 1977
EXTT0=
EXTT1=
EXTT2=
EXTT3=
EXTT4=
EXTT5=
EXTT6=
PLAYORDER=
